<svg width="16" height="19" viewBox="0 0 16 19" fill="none" xmlns="http://www.w3.org/2000/svg">
<path fill-rule="evenodd" clip-rule="evenodd" d="M10.0741 1.53226V2.45161H13.3333C14.1515 2.45161 14.8148 3.13763 14.8148 3.98387V10.4194H15.1111C15.602 10.4194 16 10.831 16 11.3387V13.7903C16 14.2981 15.602 14.7097 15.1111 14.7097H14.8148V17.4677C14.8148 18.314 14.1515 19 13.3333 19H1.48148C0.663281 19 0 18.314 0 17.4677V3.98387C0 3.13763 0.663282 2.45161 1.48148 2.45161H4.74074V1.53226C4.74074 0.686015 5.40402 0 6.22222 0H8.59259C9.41079 0 10.0741 0.686015 10.0741 1.53226ZM10.7679 9.39426C10.9594 9.22088 11.2593 9.3616 11.2593 9.62489V11.0323H15.1111C15.2748 11.0323 15.4074 11.1695 15.4074 11.3387V13.7903C15.4074 13.9596 15.2748 14.0968 15.1111 14.0968H11.2593V15.5041C11.2593 15.7674 10.9594 15.9081 10.7679 15.7348L7.51961 12.7951C7.3847 12.6731 7.3847 12.456 7.51961 12.3339L10.7679 9.39426ZM14.2222 10.4194V3.98387C14.2222 3.47613 13.8243 3.06452 13.3333 3.06452H8.59259V3.98387H11.5556C11.8828 3.98387 12.1481 4.25828 12.1481 4.59677C12.1481 4.93527 11.8828 5.20968 11.5556 5.20968H3.28593C2.95865 5.20968 2.69334 4.93527 2.69334 4.59677C2.69334 4.25828 2.95865 3.98387 3.28593 3.98387H6.22222V3.06452H1.48148C0.990562 3.06452 0.592593 3.47613 0.592593 3.98387V17.4677C0.592593 17.9755 0.990562 18.3871 1.48148 18.3871H13.3333C13.8243 18.3871 14.2222 17.9755 14.2222 17.4677V14.7097H13.3333V16.2419C13.3333 16.9189 12.8027 17.4677 12.1481 17.4677H2.66667C2.01211 17.4677 1.48148 16.9189 1.48148 16.2419L1.48148 7.66129C1.48148 6.9843 2.01211 6.43548 2.66667 6.43548H12.1481C12.8027 6.43548 13.3333 6.9843 13.3333 7.66129V10.4194H14.2222ZM5.33333 1.53226C5.33333 1.02451 5.7313 0.612903 6.22222 0.612903H8.59259C9.08351 0.612903 9.48148 1.02451 9.48148 1.53226V2.45161H8.59259V1.77742C8.59259 1.64202 8.48647 1.53226 8.35556 1.53226H6.45926C6.32835 1.53226 6.22222 1.64202 6.22222 1.77742V2.45161H5.33333V1.53226ZM3.25926 7.66129C2.93198 7.66129 2.66667 7.9357 2.66667 8.27419C2.66667 8.61269 2.93198 8.8871 3.25926 8.8871H8C8.32728 8.8871 8.59259 8.61269 8.59259 8.27419C8.59259 7.9357 8.32728 7.66129 8 7.66129H3.25926ZM3.28593 11.3387C2.95865 11.3387 2.69334 11.0643 2.69334 10.7258C2.69334 10.3873 2.95865 10.1129 3.28593 10.1129H5.62963C5.95691 10.1129 6.22222 10.3873 6.22222 10.7258C6.22222 11.0643 5.95691 11.3387 5.62963 11.3387H3.28593ZM3.25926 12.5645C2.93198 12.5645 2.66667 12.8389 2.66667 13.1774C2.66667 13.5159 2.93198 13.7903 3.25926 13.7903H5.60296C5.93024 13.7903 6.19555 13.5159 6.19555 13.1774C6.19555 12.8389 5.93024 12.5645 5.60296 12.5645H3.25926ZM3.28593 16.2419C2.95865 16.2419 2.69334 15.9675 2.69334 15.629C2.69334 15.2905 2.95865 15.0161 3.28593 15.0161H6.81482C7.14209 15.0161 7.40741 15.2905 7.40741 15.629C7.40741 15.9675 7.14209 16.2419 6.81482 16.2419H3.28593Z" fill="#A4AEC1"/>
</svg>
