<svg width="28" height="30" viewBox="0 0 28 30" fill="none" xmlns="http://www.w3.org/2000/svg">
<path d="M12.136 0.471998C12.2427 0.450665 12.456 0.439999 12.776 0.439999C13.2667 0.461332 13.7147 0.578665 14.12 0.792C14.952 1.21867 15.368 1.90133 15.368 2.84C15.368 3.224 15.2827 3.58667 15.112 3.928C15.0267 4.14133 14.8987 4.32267 14.728 4.472C14.5147 4.68533 14.3333 4.824 14.184 4.888C13.5867 5.16533 13.0213 5.176 12.488 4.92C11.9547 4.64267 11.7627 4.152 11.912 3.448C11.9333 3.36267 11.9547 3.27733 11.976 3.192C12.1253 2.70133 12.392 2.33867 12.776 2.104C12.8827 2.04 12.808 1.98667 12.552 1.944C12.4027 1.944 12.296 1.96533 12.232 2.008C12.0613 2.136 11.944 2.28533 11.88 2.456C11.7947 2.62667 11.5707 3.608 11.208 5.4C10.7173 7.74667 10.472 9.00533 10.472 9.176C10.472 9.19733 11.048 9.208 12.2 9.208H13.928L14.056 9.304C14.1413 9.41067 14.1307 9.69867 14.024 10.168C13.9173 10.6373 13.8213 10.8933 13.736 10.936C13.672 10.9787 13.0533 11 11.88 11C10.7067 11 10.12 11.0213 10.12 11.064L9.288 15.288L8.328 20.248C7.752 23.0213 7.19733 25.0053 6.664 26.2C5.98133 27.7787 5.10667 28.8133 4.04 29.304C3.74133 29.4533 3.42133 29.5387 3.08 29.56C2.14133 29.6027 1.39467 29.3147 0.84 28.696C0.797333 28.6747 0.765333 28.6427 0.744 28.6C0.445333 28.1733 0.296 27.704 0.296 27.192C0.296 26.7867 0.381333 26.4133 0.552 26.072C0.637333 25.8587 0.765333 25.6773 0.936 25.528C1.14933 25.3147 1.33067 25.176 1.48 25.112C2.07733 24.8347 2.64267 24.824 3.176 25.08C3.70933 25.3573 3.90133 25.848 3.752 26.552C3.73067 26.6373 3.70933 26.7227 3.688 26.808C3.53867 27.2987 3.272 27.6613 2.888 27.896C2.76 27.9813 2.83467 28.024 3.112 28.024C3.28267 28.024 3.41067 27.992 3.496 27.928C3.77333 27.7147 3.98667 27.16 4.136 26.264C4.34933 24.92 4.66933 23.4053 5.096 21.72L5.736 18.84C6.73867 13.4853 7.24 10.8827 7.24 11.032C7.24 11.0107 6.74933 11 5.768 11C4.72267 11 4.15733 10.9253 4.072 10.776C4.02933 10.712 4.06133 10.4667 4.168 10.04C4.27467 9.61333 4.36 9.368 4.424 9.304L4.52 9.208H6.056H7.592V9.144L7.912 7.576C8.33867 5.35733 8.75467 3.81067 9.16 2.936C9.82133 1.592 10.8133 0.770665 12.136 0.471998ZM17.8525 8.888C18.5778 8.78133 19.3138 8.888 20.0605 9.208C20.6365 9.464 21.0738 9.82667 21.3725 10.296L21.5005 10.456L21.6285 10.264C22.1618 9.624 22.8125 9.18667 23.5805 8.952C24.5192 8.696 25.3725 8.86667 26.1405 9.464C26.2898 9.57067 26.4178 9.688 26.5245 9.816C26.7805 10.1147 26.9512 10.4667 27.0365 10.872C27.2498 11.576 27.1965 12.2693 26.8765 12.952C26.5352 13.6773 25.9592 14.0827 25.1485 14.168C24.4658 14.232 23.9965 13.9867 23.7405 13.432C23.6765 13.3253 23.6338 13.1547 23.6125 12.92C23.6125 12.5573 23.6872 12.2267 23.8365 11.928C24.0072 11.544 24.3165 11.2347 24.7645 11C24.9565 10.9147 25.0525 10.8507 25.0525 10.808C24.9672 10.68 24.8178 10.5627 24.6045 10.456C24.4978 10.4133 24.3378 10.392 24.1245 10.392C23.9112 10.392 23.7512 10.4133 23.6445 10.456C23.1112 10.7547 22.6952 11.32 22.3965 12.152L20.5405 19.544C20.3912 20.2053 20.3592 20.696 20.4445 21.016C20.6152 21.592 21.0738 21.8693 21.8205 21.848C22.0765 21.8267 22.3218 21.7733 22.5565 21.688C23.4098 21.368 24.1138 20.632 24.6685 19.48C24.8178 19.1813 24.9352 18.8827 25.0205 18.584C25.1058 18.3067 25.2018 18.1573 25.3085 18.136C25.3725 18.1147 25.5965 18.104 25.9805 18.104C26.4498 18.104 26.7058 18.1253 26.7485 18.168C26.8552 18.2533 26.8658 18.4347 26.7805 18.712C26.6098 19.416 26.3112 20.0667 25.8845 20.664C24.7752 22.2853 23.4205 23.1813 21.8205 23.352C21.7778 23.352 21.7352 23.352 21.6925 23.352C20.4552 23.416 19.4632 23.0107 18.7165 22.136C18.6738 22.1147 18.6418 22.0827 18.6205 22.04C18.4925 21.8907 18.4178 21.8053 18.3965 21.784L18.2045 22.008C17.9058 22.3493 17.6072 22.6053 17.3085 22.776C16.6685 23.1813 16.0392 23.3733 15.4205 23.352C15.0152 23.3307 14.6098 23.224 14.2045 23.032C13.5218 22.712 13.0738 22.136 12.8605 21.304C12.6258 20.2373 12.8178 19.352 13.4365 18.648C14.0338 18.072 14.6845 17.8907 15.3885 18.104C15.6445 18.1893 15.8472 18.3173 15.9965 18.488C16.4018 18.936 16.4232 19.5333 16.0605 20.28C15.8685 20.6853 15.5698 20.9947 15.1645 21.208C14.9725 21.3147 14.8658 21.368 14.8445 21.368C14.8445 21.4533 15.0045 21.5813 15.3245 21.752C15.4098 21.7947 15.5592 21.816 15.7725 21.816C15.9858 21.816 16.1458 21.7947 16.2525 21.752C16.7858 21.4747 17.1912 20.92 17.4685 20.088L19.3885 12.536C19.4312 12.3227 19.4525 12.024 19.4525 11.64C19.4525 11.3413 19.4312 11.1387 19.3885 11.032C19.1325 10.4773 18.5885 10.2747 17.7565 10.424C16.9672 10.5733 16.2632 11.1067 15.6445 12.024C15.2818 12.6 15.0152 13.1973 14.8445 13.816C14.7805 13.944 14.7378 14.0187 14.7165 14.04C14.6738 14.0827 14.4178 14.104 13.9485 14.104H13.2445L13.1485 14.008C13.0845 13.944 13.0525 13.8587 13.0525 13.752C13.1378 13.1973 13.4365 12.5253 13.9485 11.736C13.9698 11.6933 13.9912 11.6507 14.0125 11.608C14.9512 10.136 16.1565 9.24 17.6285 8.92C17.7138 8.92 17.7885 8.90933 17.8525 8.888Z" fill="black"/>
</svg>
