<svg width="18" height="14" viewBox="0 0 18 14" fill="none" xmlns="http://www.w3.org/2000/svg">
<path d="M13.3646 5.5H12.4485C12.1765 4.41325 11.6144 3.42699 10.8261 2.6533C10.0379 1.8796 9.05504 1.34949 7.9893 1.12321C6.92355 0.896921 5.81765 0.98353 4.79724 1.37319C3.77683 1.76286 2.88284 2.43995 2.21685 3.32754C1.55086 4.21512 1.13957 5.27761 1.02972 6.39426C0.919872 7.51092 1.11587 8.63698 1.59544 9.64447C2.075 10.652 2.81891 11.5005 3.74264 12.0937C4.66636 12.6868 5.73286 13.0008 6.82094 13H13.3646C14.3288 13 15.2535 12.6049 15.9352 11.9016C16.617 11.1984 17 10.2446 17 9.25C17 8.25544 16.617 7.30161 15.9352 6.59835C15.2535 5.89509 14.3288 5.5 13.3646 5.5Z" stroke="#60749A" stroke-linecap="round" stroke-linejoin="round"/>
</svg>
